
<svg xmlns="http://www.w3.org/2000/svg" version="1.1" xmlns:xlink="http://www.w3.org/1999/xlink" preserveAspectRatio="none" x="0px" y="0px" width="30px" height="30px" viewBox="0 0 30 30">
<defs>
<g id="IconHotspotKaercher_2_normal_0_Layer0_0_FILL">
<path fill="#000000" stroke="none" d="
M 30 15
Q 30 8.8 25.6 4.4 21.2 0 15 0 8.8 0 4.35 4.4 0 8.8 0 15 0 21.2 4.35 25.6 8.8 30 15 30 21.2 30 25.6 25.6 30 21.2 30 15
M 24.9 5.1
Q 29 9.2 29 15 29 20.75 24.9 24.9 20.8 29 15 29 9.25 29 5.1 24.9 1 20.75 1 15 1 9.2 5.1 5.1 9.25 1 15 1 20.8 1 24.9 5.1 Z"/>

<path fill="#FFFFFF" stroke="none" d="
M 29 15
Q 29 9.2 24.9 5.1 20.8 1 15 1 9.25 1 5.1 5.1 1 9.2 1 15 1 20.75 5.1 24.9 9.25 29 15 29 20.8 29 24.9 24.9 29 20.75 29 15
M 21.35 8.65
Q 24 11.25 24 15 24 18.7 21.35 21.4 18.7 24 15 24 11.25 24 8.6 21.4 6 18.7 6 15 6 11.25 8.6 8.65 11.25 6 15 6 18.7 6 21.35 8.65 Z"/>

<path fill="#7F7F7F" stroke="none" d="
M 24 15
Q 24 11.25 21.35 8.65 18.7 6 15 6 11.25 6 8.6 8.65 6 11.25 6 15 6 18.7 8.6 21.4 11.25 24 15 24 18.7 24 21.35 21.4 24 18.7 24 15
M 15.7 11.05
Q 16.9 11.2 17.85 12.15 19 13.35 19 15 19 16.65 17.85 17.85 16.9 18.75 15.7 18.95 15.35 19 15 19 13.4 19 12.2 17.85 11 16.65 11 15 11 13.35 12.2 12.15 13.4 11 15 11 15.35 11 15.7 11.05 Z"/>

<path fill="#FFED00" stroke="none" d="
M 17.85 12.15
Q 16.9 11.2 15.7 11.05 15.35 11 15 11 13.4 11 12.2 12.15 11 13.35 11 15 11 16.65 12.2 17.85 13.4 19 15 19 15.35 19 15.7 18.95 16.9 18.75 17.85 17.85 19 16.65 19 15 19 13.35 17.85 12.15 Z"/>
</g>
</defs>

<g transform="matrix( 1, 0, 0, 1, 0,0) ">
<g transform="matrix( 1, 0, 0, 1, 0,0) ">
<use xlink:href="#IconHotspotKaercher_2_normal_0_Layer0_0_FILL"/>
</g>
</g>
</svg>
